# xmcd
#
# Track frame offsets: 
#        150
#        22312
#        41892
#        60864
#        80210
#        97548
#        119179
#        142718
#        163830
#        191638
#
# Disc length: 2867 seconds
#
# Revision: 0
# Processed by: cddbd v1.5.2PL0 Copyright (c) Steve Scherf et al.
# Submitted via: ExactAudioCopy v0.95b3
#
DISCID=870b310a
DTITLE=Robert Plant  - Nine lives - Shaken 'N Stirred [remastered with
DTITLE=bonus tracks]
DYEAR=1900
DGENRE=
TTITLE0=Hip To Hoo
TTITLE1=Kallalou Kallalou
TTITLE2=Too Loud
TTITLE3=Trouble Your Money
TTITLE4=Pink And Black
TTITLE5=Little By Little
TTITLE6=Doo Doo A Do Do
TTITLE7=Easily Lead
TTITLE8=Sixes And Sevens
TTITLE9=Little By Little (Remixed Long Version)
EXTD=
EXTT0=
EXTT1=
EXTT2=
EXTT3=
EXTT4=
EXTT5=
EXTT6=
EXTT7=
EXTT8=
EXTT9=
PLAYORDER=
